PathFileType	4	(X/Y/Z)	9_coords_data.trc
DataRate	CameraRate	NumFrames	NumMarkers	Units	OrigDataRate	OrigDataStartFrame	OrigNumFrames
30.0	30.0	6	21	m	30.0	12	56
Frame#	Time	THUMB_TIP	THUMB_IP	THUMB_MCP	THUMB_CMC	INDEX_TIP	INDEX_DIP	INDEX_PIP	INDEX_MCP	MIDDLE_TIP	MIDDLE_DIP	MIDDLE_PIP	MIDDLE_MCP	RING_TIP	RING_DIP	RING_PIP	RING_MCP	PINKY_TIP	PINKY_DIP	PINKY_PIP	PINKY_MCP	WRIST
X1	Y1	Z1	X2	Y2	Z2	X3	Y3	Z3	X4	Y4	Z4	X5	Y5	Z5	X6	Y6	Z6	X7	Y7	Z7	X8	Y8	Z8	X9	Y9	Z9	X10	Y10	Z10	X11	Y11	Z11	X12	Y12	Z12	X13	Y13	Z13	X14	Y14	Z14	X15	Y15	Z15	X16	Y16	Z16	X17	Y17	Z17	X18	Y18	Z18	X19	Y19	Z19	X20	Y20	Z20	X21	Y21	Z21
11	0.36666666666666664	0.038704299926757814	0.001280339956283569	1.0278299560546875	0.025027999877929686	-0.013185799598693848	1.0438499755859374	-0.0006563910245895381	-0.019465099334716796	1.059030029296875	-0.019201700210571288	-0.004964809894561767	1.0743599853515624	-0.008886489868164062	-0.038274299621582034	0.931822021484375	-0.010434300422668456	-0.033633998870849606	0.9541170043945313	-0.01495930004119873	-0.028797000885009767	0.9760869750976563	-0.02232390022277832	-0.0191382999420166	1.0156199951171876	0.023295299530029297	-0.002293540000915527	1.0351099853515624	0.0247322998046875	0.0014822700023651122	1.0146699829101562	0.00803991985321045	0.005458509922027588	0.9901060180664063	-0.0302283992767334	0.0024485599994659418	1.010530029296875	0.024318300247192382	0.007301660060882569	1.040780029296875	0.02369499969482422	0.017887100219726563	1.0228099975585938	0.006865910053253174	0.030808000564575194	1.0028900146484374	-0.029140100479125977	0.025363199234008788	1.01977001953125	-0.003615920066833496	0.08265390014648437	0.9872979736328125	-0.009116909980773925	0.0712490005493164	1.003280029296875	-0.015239800453186035	0.06043050003051758	1.0168900146484374	-0.021476499557495116	0.040703998565673825	1.037	-0.054342201232910156	0.002775690078735351	1.096219970703125
12	0.4	0.03896849822998047	0.0009531069993972771	1.0277900390625	0.02508799934387207	-0.013383999824523925	1.0441099853515625	-0.00013867600262165	-0.019660600662231444	1.05956005859375	-0.019166700363159178	-0.005395050048828125	1.0741199951171876	-0.00821654987335205	-0.038355701446533205	0.9317630004882812	-0.009933250427246094	-0.03375699996948242	0.9540650024414062	-0.014522700309753419	-0.029009199142456053	0.9759840087890626	-0.022145700454711915	-0.01944930076599121	1.0155700073242186	0.022946199417114257	-0.0027561299800872804	1.0354599609375	0.024904199600219726	0.001204229950904846	1.0148499755859375	0.008190420150756836	0.0051397099494934085	0.9900440063476562	-0.030055200576782227	0.0021653800010681154	1.010510009765625	0.02480380058288574	0.007097569942474366	1.0403699951171874	0.023922399520874025	0.017723499298095705	1.0226900024414063	0.007039390087127685	0.030582199096679686	1.0029400024414064	-0.02898270034790039	0.025056800842285155	1.019719970703125	-0.002963779926300049	0.08259279632568359	0.98756298828125	-0.00858036994934082	0.07114309692382813	1.0034299926757813	-0.014815699577331544	0.060276100158691406	1.0169400024414061	-0.021325700759887694	0.04044369888305664	1.0368800048828124	-0.054211498260498044	0.0024409201145172118	1.0961700439453126
13	0.43333333333333335	0.03928860092163086	0.000515721976757049	1.0278699951171875	0.02535890007019043	-0.0137903995513916	1.04406005859375	-0.00028374901413917504	-0.019987100601196288	1.05947998046875	-0.019147100448608397	-0.005593659877777099	1.0743800048828125	-0.007439620018005371	-0.038490100860595705	0.9317830200195313	-0.009295660018920899	-0.03401279830932617	0.9540579833984375	-0.014131699562072754	-0.02928030014038086	0.9760239868164062	-0.021929500579833984	-0.019794200897216795	1.0156199951171876	0.02294659996032715	-0.0033422000408172598	1.035699951171875	0.02526129913330078	0.0009365490078926081	1.014739990234375	0.008486249923706054	0.004767199993133545	0.990135986328125	-0.029748199462890625	0.0018270900249481201	1.0103800048828124	0.02490559959411621	0.006506269931793213	1.0405799560546876	0.024209400177001954	0.01739550018310547	1.0230900268554688	0.007368899822235107	0.030305599212646483	1.0031799926757812	-0.028804599761962892	0.024741600036621094	1.0196500244140625	-0.002244070053100586	0.08245459747314453	0.987885986328125	-0.008018199920654296	0.07095420074462891	1.0036500244140625	-0.014421600341796875	0.0600176010131836	1.0170700073242187	-0.021150999069213867	0.040116500854492185	1.0368800048828124	-0.05418410110473633	0.002231800079345703	1.0963199462890625
14	0.4666666666666667	0.039587398529052735	-2.4761499837040002e-05	1.028	0.025585199356079103	-0.014358900070190429	1.0441500244140625	3.1206799671053e-05	-0.02051889991760254	1.0594000244140624	-0.019109500885009765	-0.006021369934082031	1.07472998046875	-0.006613860130310059	-0.038744098663330076	0.931885009765625	-0.008615030288696288	-0.03421699905395508	0.9541229858398438	-0.01364009952545166	-0.029599700927734375	0.9760850219726562	-0.021849300384521483	-0.020147300720214843	1.015719970703125	0.023671600341796876	-0.003538470029830932	1.0358499755859376	0.025599100112915038	0.00047475498914718606	1.015010009765625	0.00898408031463623	0.004425930023193359	0.9902999877929688	-0.029482999801635743	0.0013984400033950802	1.0103200073242187	0.025361099243164063	0.00604748010635376	1.0409300537109376	0.024691099166870116	0.017010799407958986	1.0230700073242187	0.0077866997718811035	0.029872800827026365	1.0034299926757813	-0.028553199768066407	0.024382400512695312	1.0196799926757814	-0.001461830019950866	0.0820886001586914	0.9881829833984375	-0.007383580207824707	0.07059590148925782	1.0038599853515624	-0.01389620018005371	0.05966790008544922	1.0172000122070313	-0.021045499801635743	0.03974720001220703	1.0368599853515625	-0.05423799896240234	0.00201852011680603	1.0963399658203126
15	0.5	0.039638099670410154	-0.000328682005405426	1.0283900146484375	0.025537700653076173	-0.014760499954223632	1.0441500244140625	0.000137361004948616	-0.021010499954223633	1.0593599853515625	-0.01909779930114746	-0.006818950176239014	1.0743399658203125	-0.006024459838867187	-0.03914450073242187	0.9319539794921875	-0.00820230007171631	-0.03468870162963867	0.9541719970703125	-0.01332409954071045	-0.030055700302124025	0.97610498046875	-0.02165530014038086	-0.020661800384521485	1.0156199951171876	0.0241481990814209	-0.003879009962081909	1.0357900390625	0.02569470024108887	5.703790113329801e-05	1.0151699829101561	0.009101670265197754	0.003832669973373413	0.9904509887695313	-0.029264900207519533	0.0009432510137557981	1.0102100219726562	0.02550250053405762	0.005706140041351318	1.0406199951171875	0.024850000381469728	0.016558000564575195	1.02297998046875	0.00793848991394043	0.029337799072265625	1.0033400268554689	-0.02837579917907715	0.02390220069885254	1.0195700073242187	-0.000957315981388092	0.08156120300292968	0.9882000122070312	-0.006995920181274414	0.07005480194091797	1.0038499755859376	-0.013659299850463867	0.059171398162841796	1.0171900024414062	-0.020891199111938475	0.03927590179443359	1.0368399658203125	-0.054052799224853516	0.001308599948883056	1.096260009765625
16	0.5333333333333333	0.03967940139770508	-0.000700488984584808	1.0283599853515626	0.025746400833129884	-0.015078399658203125	1.0441700439453125	9.537280350923501e-05	-0.021403799057006834	1.059300048828125	-0.01899640083312988	-0.007031410217285156	1.074219970703125	-0.005781849861145019	-0.03983689880371094	0.9319320068359375	-0.007995890140533448	-0.03533649826049805	0.9541510009765625	-0.01315470027923584	-0.030641199111938477	0.9760759887695313	-0.021449600219726563	-0.02117060089111328	1.0155	0.023658899307250975	-0.004295919895172119	1.0356700439453126	0.025899499893188477	-0.00047584301233291604	1.0151599731445313	0.009351980209350587	0.003260600090026855	0.9902860107421875	-0.029229000091552736	0.00044931900501251205	1.0102000122070312	0.02557270050048828	0.0052019600868225095	1.0405899658203126	0.024904199600219726	0.01603660011291504	1.0229099731445312	0.00809171962738037	0.02883650016784668	1.0032000122070313	-0.02825900077819824	0.023404699325561523	1.01952001953125	-0.0007799609899520871	0.08093370056152344	0.9879349975585937	-0.006892370223999023	0.06951229858398437	1.0036599731445313	-0.013573399543762207	0.058643600463867185	1.0171099853515626	-0.020780099868774413	0.038816200256347654	1.03675	-0.05410279846191406	0.001000429987907409	1.0958900146484376
